<svg version="1.1" id="Layer_1" xmlns="http://www.w3.org/2000/svg" xmlns:xlink="http://www.w3.org/1999/xlink" x="0px" y="0px"
	 viewBox="0 0 81.4 56" enable-background="new 0 0 81.4 56" xml:space="preserve">
<rect fill="#ec40ff" width="43.8" height="43.8"/>
<g>
	<path fill="#FFFFFF" d="M74,2l1.8,2.7c-12.1,8-18.2,15.9-18.2,23.9c0,4.2,1.8,6.5,5.3,7l8.2-7.6c2.6,0.9,5,2.6,7.1,5
		c2.2,2.4,3.2,5.5,3.2,9.3c0,3.8-1.5,7-4.5,9.7c-3,2.7-6.9,4-11.8,4c-4.9,0-8.9-1.7-12.1-5c-3.2-3.3-4.8-7.9-4.8-13.8
		C48.2,24.4,56.8,12.7,74,2z M37.8,2l1.8,2.7c-12.1,8-18.2,15.9-18.2,23.9c0,4.2,1.8,6.5,5.3,7l8.2-7.6c2.6,0.9,5,2.6,7.1,5
		c2.2,2.4,3.2,5.5,3.2,9.3c0,3.8-1.5,7-4.5,9.7c-3,2.7-6.9,4-11.8,4s-8.9-1.7-12.1-5c-3.2-3.3-4.8-7.9-4.8-13.8
		C12,24.4,20.6,12.7,37.8,2z"/>
</g>
</svg>
